<svg width="18" height="23" viewBox="0 0 18 23" fill="none" xmlns="http://www.w3.org/2000/svg">
<path d="M7.36355 17.1818H13.909V18.8182H7.36355V17.1818ZM4.09082 17.1818H5.72718V18.8182H4.09082V17.1818ZM7.36355 13.0909H13.909V14.7273H7.36355V13.0909ZM4.09082 13.0909H5.72718V14.7273H4.09082V13.0909ZM7.36355 9H13.909V10.6364H7.36355V9ZM4.09082 9H5.72718V10.6364H4.09082V9Z" fill="#CECECE"/>
<path d="M16.3636 2.45455H13.9091V1.63636C13.9091 1.20237 13.7367 0.786157 13.4298 0.47928C13.1229 0.172402 12.7067 0 12.2727 0H5.72727C5.29328 0 4.87707 0.172402 4.57019 0.47928C4.26331 0.786157 4.09091 1.20237 4.09091 1.63636V2.45455H1.63636C1.20237 2.45455 0.786157 2.62695 0.47928 2.93383C0.172402 3.2407 0 3.65692 0 4.09091V21.2727C0 21.7067 0.172402 22.1229 0.47928 22.4298C0.786157 22.7367 1.20237 22.9091 1.63636 22.9091H16.3636C16.7976 22.9091 17.2138 22.7367 17.5207 22.4298C17.8276 22.1229 18 21.7067 18 21.2727V4.09091C18 3.65692 17.8276 3.2407 17.5207 2.93383C17.2138 2.62695 16.7976 2.45455 16.3636 2.45455V2.45455ZM5.72727 1.63636H12.2727V4.90909H5.72727V1.63636ZM16.3636 21.2727H1.63636V4.09091H4.09091V6.54545H13.9091V4.09091H16.3636V21.2727Z" fill="#CECECE"/>
</svg>