<svg width="20" height="20" viewBox="0 0 20 20" fill="none" xmlns="http://www.w3.org/2000/svg">
<path d="M5.00001 12.5C4.73479 12.5 4.48044 12.6054 4.2929 12.7929C4.10537 12.9804 4.00001 13.2348 4.00001 13.5V15.282C2.71109 13.8244 1.99974 11.9458 2.00001 10C1.99958 9.7059 2.01694 9.41203 2.05201 9.12002C2.07109 8.98811 2.06361 8.85371 2.03 8.72473C1.9964 8.59576 1.93734 8.4748 1.85632 8.36897C1.7753 8.26314 1.67393 8.17457 1.55819 8.10848C1.44245 8.04239 1.31466 8.0001 1.18234 7.9841C1.05002 7.9681 0.915837 7.97871 0.787677 8.01532C0.659517 8.05192 0.539969 8.11378 0.436057 8.19725C0.332146 8.28072 0.245969 8.38412 0.182592 8.50137C0.119216 8.61862 0.0799182 8.74736 0.0670096 8.88002C0.0218435 9.25163 -0.000531661 9.62567 9.58777e-06 10C0.00137424 12.3862 0.859022 14.6927 2.41701 16.5H1.00001C0.734793 16.5 0.480439 16.6054 0.292903 16.7929C0.105367 16.9804 9.58777e-06 17.2348 9.58777e-06 17.5C9.58777e-06 17.7652 0.105367 18.0196 0.292903 18.2071C0.480439 18.3947 0.734793 18.5 1.00001 18.5H5.00001C5.1564 18.498 5.31004 18.4586 5.44815 18.3852C5.58626 18.3118 5.70483 18.2065 5.79401 18.078C5.80501 18.063 5.82001 18.051 5.83101 18.035C5.83801 18.025 5.83801 18.013 5.84401 18.003C5.89164 17.9226 5.92734 17.8357 5.95001 17.745C5.96501 17.694 5.97572 17.6418 5.98201 17.589C5.98501 17.559 6.00001 17.532 6.00001 17.5V13.5C6.00001 13.2348 5.89465 12.9804 5.70712 12.7929C5.51958 12.6054 5.26523 12.5 5.00001 12.5ZM6.50001 4.00002H4.71701C6.17496 2.71103 8.05396 1.99969 10 2.00002C10.2942 1.99937 10.5881 2.01707 10.88 2.05302C11.1435 2.08484 11.4088 2.01069 11.6177 1.84688C11.8265 1.68307 11.9617 1.44301 11.9935 1.17952C12.0253 0.916025 11.9512 0.650682 11.7874 0.44186C11.6236 0.233038 11.3835 0.0978439 11.12 0.066018C10.7484 0.0213199 10.3743 -0.000720855 10 1.79728e-05C7.61383 0.00138263 5.30737 0.859031 3.50001 2.41702V1.00002C3.50001 0.734802 3.39465 0.480448 3.20712 0.292911C3.01958 0.105375 2.76523 1.79728e-05 2.50001 1.79728e-05C2.23479 1.79728e-05 1.98044 0.105375 1.7929 0.292911C1.60537 0.480448 1.50001 0.734802 1.50001 1.00002V5.00002C1.50618 5.0662 1.51925 5.13155 1.53901 5.19502C1.56312 5.31841 1.61101 5.43592 1.68001 5.54102L1.69201 5.55802C1.75797 5.65396 1.84061 5.73728 1.93601 5.80402C1.94701 5.81202 1.95301 5.82402 1.96401 5.83202C1.97801 5.84202 1.99401 5.84502 2.00901 5.85302C2.06594 5.88718 2.12626 5.91533 2.18901 5.93702C2.27322 5.96638 2.36102 5.98421 2.45001 5.99002C2.46801 5.99002 2.48201 6.00002 2.50001 6.00002H6.50001C6.76523 6.00002 7.01958 5.89466 7.20712 5.70712C7.39465 5.51959 7.50001 5.26523 7.50001 5.00002C7.50001 4.7348 7.39465 4.48045 7.20712 4.29291C7.01958 4.10537 6.76523 4.00002 6.50001 4.00002ZM18.46 14.804C18.4358 14.681 18.3879 14.5638 18.319 14.459L18.308 14.442C18.2418 14.346 18.1588 14.2627 18.063 14.196C18.052 14.188 18.047 14.176 18.035 14.168C18.025 14.161 18.012 14.161 18.001 14.154C17.8741 14.0833 17.735 14.0371 17.591 14.018C17.559 14.015 17.532 14 17.5 14H13.5C13.2348 14 12.9804 14.1054 12.7929 14.2929C12.6054 14.4804 12.5 14.7348 12.5 15C12.5 15.2652 12.6054 15.5196 12.7929 15.7071C12.9804 15.8947 13.2348 16 13.5 16H15.282C13.8244 17.2889 11.9457 18.0002 10 18C9.70584 18.0003 9.41194 17.9823 9.12001 17.946C8.85652 17.9142 8.59117 17.9883 8.38235 18.1522C8.17353 18.316 8.03834 18.556 8.00651 18.8195C7.97468 19.083 8.04883 19.3484 8.21265 19.5572C8.37646 19.766 8.61652 19.9012 8.88001 19.933C9.25167 19.9777 9.62567 20.0001 10 20C12.3862 19.9987 14.6927 19.141 16.5 17.583V19C16.5 19.2652 16.6054 19.5196 16.7929 19.7071C16.9804 19.8947 17.2348 20 17.5 20C17.7652 20 18.0196 19.8947 18.2071 19.7071C18.3947 19.5196 18.5 19.2652 18.5 19V15C18.4935 14.9338 18.4801 14.8684 18.46 14.805V14.804ZM19 3.50002C19.2652 3.50002 19.5196 3.39466 19.7071 3.20712C19.8947 3.01959 20 2.76523 20 2.50002C20 2.2348 19.8947 1.98045 19.7071 1.79291C19.5196 1.60537 19.2652 1.50002 19 1.50002H15C14.9348 1.50638 14.8705 1.51945 14.808 1.53902L14.801 1.54002C14.6798 1.56453 14.5644 1.61206 14.461 1.68002L14.441 1.69302C14.3454 1.75909 14.2625 1.84172 14.196 1.93702C14.188 1.94702 14.176 1.95302 14.168 1.96402C14.161 1.97402 14.161 1.98702 14.154 1.99802C14.0827 2.12574 14.0366 2.26593 14.018 2.41102C14.015 2.44102 14 2.46802 14 2.50002V6.50002C14 6.76523 14.1054 7.01959 14.2929 7.20712C14.4804 7.39466 14.7348 7.50002 15 7.50002C15.2652 7.50002 15.5196 7.39466 15.7071 7.20712C15.8947 7.01959 16 6.76523 16 6.50002V4.71702C17.2889 6.17502 18.0002 8.05398 18 10C18.0001 10.2942 17.9824 10.588 17.947 10.88C17.9154 11.1432 17.9894 11.4082 18.1529 11.6168C18.3164 11.8255 18.5559 11.9608 18.819 11.993C18.8595 11.9978 18.9002 12.0001 18.941 12C19.1851 11.9996 19.4207 11.9099 19.6032 11.7478C19.7858 11.5857 19.9027 11.3624 19.932 11.12C19.9775 10.7484 20.0002 10.3744 20 10C19.9986 7.61384 19.141 5.30738 17.583 3.50002H19Z" fill="#CECECE"/>
</svg>